<svg width="18" height="18" viewBox="0 0 18 18" fill="none" xmlns="http://www.w3.org/2000/svg">
<path d="M15.0384 3.81191C15.6646 2.64907 14.949 1.12842 14.949 1.12842C13.3389 1.12842 12.176 2.20181 12.176 2.20181C11.5499 1.84401 9.49254 1.84401 9.49254 1.84401C9.49254 1.84401 7.4352 1.84401 6.80905 2.20181C6.80905 2.20181 5.6462 1.12842 4.0361 1.12842C4.0361 1.12842 3.3205 2.64907 3.94665 3.81191C3.94665 3.81191 2.51545 5.15367 3.05215 8.01605C3.55648 10.7058 5.91453 11.4152 7.43518 11.4152C7.43518 11.4152 6.80903 11.9518 6.89849 12.8463C6.89849 12.8463 6.00399 13.383 5.10949 13.0252C4.21499 12.6674 3.76774 11.7729 3.76774 11.7729C3.76774 11.7729 2.87324 10.6101 1.97874 11.0573C1.97874 11.0573 1.71039 11.3257 2.69434 11.7729C2.69434 11.7729 3.40995 12.8463 3.6783 13.4725C3.94665 14.0986 5.37784 14.6353 6.80905 14.2775V16.3349C6.80905 16.3349 6.80905 16.5138 6.45125 16.6032C6.09344 16.6927 6.09344 16.8716 6.27235 16.8716H12.7127C12.8916 16.8716 12.8916 16.6927 12.5338 16.6032C12.176 16.5138 12.176 16.3349 12.176 16.3349V14.2775C12.176 14.2775 12.1839 13.2047 12.176 12.8463C12.1564 11.9476 11.5499 11.4151 11.5499 11.4151C13.0705 11.4151 15.4286 10.7058 15.9329 8.01604C16.4696 5.15367 15.0384 3.81191 15.0384 3.81191Z" fill="black"/>
</svg>
