<svg width="20" height="20" viewBox="0 0 20 20" fill="none" xmlns="http://www.w3.org/2000/svg">
<path d="M7.19593 18.5C6.72973 18.4984 6.26895 18.3999 5.84282 18.2108C5.41668 18.0217 5.03449 17.7461 4.72047 17.4015L4.70129 17.3797C4.03714 16.6379 3.66992 15.6772 3.66992 14.6815C3.66992 13.6859 4.03714 12.7252 4.70129 11.9833L4.95629 11.7044C5.01379 11.639 5.08451 11.5865 5.16378 11.5504C5.24305 11.5144 5.32907 11.4955 5.41616 11.4951C5.47061 11.4958 5.52476 11.5031 5.57744 11.5169C5.69025 11.5512 5.7919 11.6149 5.87195 11.7015C5.952 11.788 6.00757 11.8944 6.03296 12.0095C6.06175 12.1271 6.06089 12.25 6.03046 12.3671C6.00002 12.4843 5.94097 12.5921 5.8586 12.6808L5.60273 12.9597C5.3198 13.2741 5.11859 13.6533 5.01688 14.0638C4.91516 14.4743 4.91606 14.9035 5.01949 15.3136C5.11129 15.7148 5.30667 16.0849 5.58614 16.387C5.86562 16.6891 6.21942 16.9127 6.61226 17.0354C6.80163 17.0911 6.9981 17.119 7.19549 17.1182C7.49577 17.1169 7.79247 17.053 8.0667 16.9307C8.34093 16.8083 8.58667 16.6302 8.78826 16.4077L11.8531 13.0862C12.1553 12.7482 12.3636 12.3369 12.4571 11.8932C12.5505 11.4495 12.5259 10.9891 12.3857 10.558C12.2589 10.1383 12.0153 9.76347 11.6834 9.47711C11.3515 9.19076 10.945 9.00474 10.5114 8.94077C10.4263 8.93103 10.3442 8.90348 10.2704 8.85993C10.1967 8.81637 10.1329 8.75777 10.0833 8.68795C9.97633 8.54235 9.92781 8.36194 9.94731 8.18231C9.95704 8.01934 10.0274 7.8659 10.1445 7.75217C10.2616 7.63843 10.4171 7.57263 10.5802 7.5677C10.604 7.56697 10.6278 7.56843 10.6513 7.57205C11.3208 7.65419 11.9502 7.93508 12.4585 8.37846C12.988 8.83675 13.3803 9.4327 13.5919 10.1003C13.8126 10.7832 13.8509 11.512 13.703 12.2144C13.5617 12.9048 13.235 13.5438 12.758 14.0626L9.69231 17.3797C9.37773 17.7307 8.993 18.0118 8.56299 18.2048C8.13298 18.3977 7.66725 18.4983 7.19593 18.5ZM9.74724 12.4192C9.27714 12.414 8.81319 12.3117 8.3844 12.119C7.95561 11.9262 7.5712 11.6471 7.25521 11.299C6.59107 10.5572 6.22384 9.59645 6.22384 8.60077C6.22384 7.60509 6.59107 6.64438 7.25521 5.90257L10.3209 2.58539C10.6362 2.24047 11.0204 1.96563 11.4487 1.77867C11.877 1.59171 12.3398 1.4968 12.8071 1.50008C13.2745 1.50337 13.7359 1.60478 14.1615 1.79775C14.5871 1.99072 14.9675 2.27094 15.2779 2.62026C15.9378 3.35557 16.3053 4.30719 16.311 5.29515C16.3167 6.28312 15.9602 7.23892 15.3089 7.9818L15.0547 8.26077C14.9974 8.32239 14.9277 8.3713 14.8503 8.40434C14.7729 8.43738 14.6894 8.45381 14.6052 8.45258C14.5211 8.45135 14.4381 8.43248 14.3617 8.39718C14.2853 8.36189 14.2171 8.31097 14.1616 8.24769C14.0433 8.11469 13.9773 7.94329 13.9759 7.76532C13.9744 7.58735 14.0376 7.41491 14.1537 7.28L14.4087 7.00539C14.6951 6.69119 14.8994 6.31112 15.0035 5.89896C15.1076 5.48681 15.1083 5.05531 15.0055 4.64282C14.9132 4.23966 14.7168 3.86772 14.436 3.56409C14.1551 3.26046 13.7996 3.03573 13.4049 2.91231C13.2172 2.86016 13.0233 2.83377 12.8286 2.83385C12.5251 2.83704 12.2255 2.90342 11.949 3.02875C11.6726 3.15408 11.4252 3.33561 11.2227 3.5618L8.15708 6.87462C7.83158 7.24017 7.61573 7.69009 7.53431 8.17275C7.4529 8.6554 7.5092 9.15123 7.69678 9.60334C7.85865 10.0185 8.13997 10.3763 8.50518 10.6315C8.87038 10.8868 9.30307 11.0281 9.74854 11.0374C9.79606 11.0374 9.84401 11.0374 9.89152 11.0331C9.90808 11.0331 9.92421 11.0287 9.9399 11.0287C10.0473 11.0307 10.1525 11.0602 10.2453 11.1144C10.3381 11.1685 10.4154 11.2456 10.47 11.3382C10.533 11.4416 10.5696 11.5589 10.5766 11.6797C10.5836 11.8006 10.5607 11.9213 10.5101 12.0313C10.4632 12.1374 10.3883 12.2287 10.2935 12.2955C10.1986 12.3623 10.0874 12.4021 9.97172 12.4105C9.89631 12.4149 9.82134 12.4192 9.74724 12.4192Z" fill="#322221"/>
</svg>
