<svg width="32" height="32" viewBox="0 0 32 32" fill="none" xmlns="http://www.w3.org/2000/svg">
<path d="M16.3333 2.66675C16.7382 2.66679 17.1335 2.7897 17.467 3.01923C17.8005 3.24876 18.0565 3.5741 18.2011 3.95223C18.3458 4.33037 18.3722 4.7435 18.2771 5.13701C18.1819 5.53052 17.9695 5.88587 17.668 6.15608L17.6667 8.00008H22.6667C23.6869 8.00002 24.6687 8.38985 25.411 9.08979C26.1533 9.78974 26.6001 10.7469 26.66 11.7654L26.6667 12.0001V22.6667C26.6667 23.687 26.2769 24.6688 25.577 25.4111C24.877 26.1534 23.9199 26.6002 22.9013 26.6601L22.6667 26.6667H9.33333C8.31305 26.6668 7.33131 26.277 6.58899 25.577C5.84666 24.8771 5.39986 23.9199 5.34 22.9014L5.33333 22.6667V12.0001C5.33328 10.9798 5.7231 9.99806 6.42305 9.25573C7.12299 8.51341 8.08014 8.0666 9.09867 8.00675L9.33333 8.00008H15V6.15741C14.6981 5.88738 14.4853 5.53204 14.3898 5.13843C14.2943 4.74481 14.3205 4.33147 14.465 3.9531C14.6096 3.57472 14.8656 3.24914 15.1992 3.01945C15.5328 2.78975 15.9283 2.66676 16.3333 2.66675ZM18 18.6667H14C13.6602 18.6671 13.3333 18.7973 13.0862 19.0305C12.8391 19.2638 12.6904 19.5827 12.6704 19.9219C12.6505 20.2612 12.7609 20.5953 12.979 20.8559C13.1971 21.1165 13.5065 21.2839 13.844 21.3241L14 21.3334H18C18.3536 21.3334 18.6928 21.1929 18.9428 20.9429C19.1929 20.6928 19.3333 20.3537 19.3333 20.0001C19.3333 19.6465 19.1929 19.3073 18.9428 19.0573C18.6928 18.8072 18.3536 18.6667 18 18.6667ZM12.3333 13.3334C11.8029 13.3334 11.2942 13.5441 10.9191 13.9192C10.544 14.2943 10.3333 14.803 10.3333 15.3334C10.3333 15.8638 10.544 16.3726 10.9191 16.7476C11.2942 17.1227 11.8029 17.3334 12.3333 17.3334C12.8638 17.3334 13.3725 17.1227 13.7475 16.7476C14.1226 16.3726 14.3333 15.8638 14.3333 15.3334C14.3333 14.803 14.1226 14.2943 13.7475 13.9192C13.3725 13.5441 12.8638 13.3334 12.3333 13.3334ZM20.3333 13.3334C19.8029 13.3334 19.2942 13.5441 18.9191 13.9192C18.544 14.2943 18.3333 14.803 18.3333 15.3334C18.3333 15.8638 18.544 16.3726 18.9191 16.7476C19.2942 17.1227 19.8029 17.3334 20.3333 17.3334C20.8638 17.3334 21.3725 17.1227 21.7475 16.7476C22.1226 16.3726 22.3333 15.8638 22.3333 15.3334C22.3333 14.803 22.1226 14.2943 21.7475 13.9192C21.3725 13.5441 20.8638 13.3334 20.3333 13.3334ZM3.33333 13.3334C3.65991 13.3335 3.97512 13.4534 4.21916 13.6704C4.46321 13.8874 4.61912 14.1864 4.65733 14.5107L4.66667 14.6667V20.0001C4.66629 20.3399 4.53616 20.6668 4.30287 20.9139C4.06958 21.161 3.75073 21.3097 3.41147 21.3296C3.07222 21.3496 2.73816 21.2392 2.47756 21.0211C2.21695 20.8029 2.04947 20.4935 2.00933 20.1561L2 20.0001V14.6667C2 14.3131 2.14048 13.974 2.39052 13.7239C2.64057 13.4739 2.97971 13.3334 3.33333 13.3334ZM28.6667 13.3334C28.9932 13.3335 29.3084 13.4534 29.5525 13.6704C29.7965 13.8874 29.9525 14.1864 29.9907 14.5107L30 14.6667V20.0001C29.9996 20.3399 29.8695 20.6668 29.6362 20.9139C29.4029 21.161 29.0841 21.3097 28.7448 21.3296C28.4056 21.3496 28.0715 21.2392 27.8109 21.0211C27.5503 20.8029 27.3828 20.4935 27.3427 20.1561L27.3333 20.0001V14.6667C27.3333 14.3131 27.4738 13.974 27.7239 13.7239C27.9739 13.4739 28.313 13.3334 28.6667 13.3334Z" fill="black"/>
</svg>
