<svg width="20" height="20" viewBox="0 0 20 20" fill="none" xmlns="http://www.w3.org/2000/svg">
<path d="M9.99023 16.0137C9.64844 16.0137 9.36523 15.7324 9.35742 15.3887V11.0898L8.23633 12.2012C8.11523 12.3184 7.95508 12.3848 7.78516 12.3848C7.61523 12.3848 7.45508 12.3203 7.33203 12.2012C7.21484 12.0859 7.14844 11.9336 7.14453 11.7676C7.14258 11.6016 7.20508 11.4453 7.32031 11.3262L7.33203 11.3145L9.51562 9.16797L9.51758 9.16602C9.64062 9.0293 9.81055 8.95312 9.99609 8.95312C10.168 8.95312 10.3281 9.01758 10.4512 9.13672L12.666 11.3105C12.7852 11.4277 12.8516 11.5859 12.8516 11.7539C12.8516 11.9219 12.7852 12.0781 12.666 12.1973C12.5449 12.3145 12.3828 12.3809 12.2148 12.3809C12.0449 12.3809 11.8848 12.3164 11.7617 12.1973L10.6367 11.0918V15.3887C10.6328 15.7324 10.3477 16.0137 10 16.0137H9.99023ZM4.46484 15.3906C2.6875 15.3906 1.24219 13.9707 1.24219 12.2266C1.24219 11.4316 1.54297 10.6699 2.08984 10.0859C2.63281 9.50391 3.37109 9.14453 4.16992 9.07422L4.26367 9.06641L4.26172 8.97266C4.23242 7.99609 4.76758 6.8418 5.69531 5.88477C6.86523 4.67773 8.43359 3.98633 9.99805 3.98633C12.9277 3.98633 15.4043 6.13867 15.7617 8.99219L15.7734 9.08008H15.8867C16.5938 9.08008 17.3164 9.41602 17.8672 10.002C18.4414 10.6133 18.7598 11.4023 18.7598 12.2285C18.7598 13.9414 17.3672 15.3398 15.6367 15.3906V15.3887H13.6914C13.3398 15.3887 13.0547 15.1094 13.0547 14.7637C13.0586 14.4199 13.3418 14.1387 13.6875 14.1387H15.541C16.6133 14.1387 17.4863 13.2812 17.4863 12.2266C17.4863 11.1719 16.6133 10.3145 15.541 10.3145H14.5293V9.69531C14.5293 7.24023 12.498 5.24414 10.0039 5.24414C7.50781 5.24414 5.47852 7.24023 5.47852 9.69531V10.3203H4.4668C3.39453 10.3203 2.52148 11.1777 2.52148 12.2324C2.52148 13.2871 3.39453 14.1445 4.4668 14.1445H6.32422C6.66797 14.1445 6.94922 14.4238 6.95312 14.7695C6.94922 15.1133 6.66602 15.3945 6.32031 15.3945L4.46484 15.3906Z" fill="#322221"/>
</svg>
