<svg width="16" height="17" viewBox="0 0 16 17" fill="none" xmlns="http://www.w3.org/2000/svg">
<g clip-path="url(#clip0_287_961)">
<path d="M4.50977 5.88184H11.4189V6.97274H4.50977V5.88184ZM4.50977 8.86365H11.4189V9.95456H4.50977V8.86365Z" fill="#322221"/>
<path d="M8 0.572754C3.56364 0.572754 0 3.84548 0 7.91821C0 10.1 1.01818 12.1364 2.76364 13.4455C2.90909 13.6637 3.2 14.9 3.34545 15.9182C3.34545 16.0637 3.49091 16.2818 3.63636 16.3546C3.70909 16.4273 3.78182 16.4273 3.92727 16.4273C4 16.4273 4.07273 16.4273 4.14545 16.3546L6.47273 15.2637H8C12.4364 15.2637 16 11.9182 16 7.91821C16 3.91821 12.4364 0.572754 8 0.572754ZM8 14.1728H6.32727C6.25455 14.1728 6.18182 14.1728 6.10909 14.2455L4.29091 15.0455C4.07273 13.6637 3.78182 12.8637 3.49091 12.6455C1.96364 11.4818 1.16364 9.73639 1.16364 7.91821C1.16364 4.50003 4.21818 1.66366 8.07273 1.66366C11.9273 1.66366 14.9818 4.50003 14.9818 7.91821C14.9818 11.3364 11.7818 14.1728 8 14.1728Z" fill="#322221"/>
</g>
<defs>
<clipPath id="clip0_287_961">
<rect width="16" height="16" fill="white" transform="translate(0 0.5)"/>
</clipPath>
</defs>
</svg>
