<svg width="32" height="32" viewBox="0 0 32 32" fill="none" xmlns="http://www.w3.org/2000/svg">
<path d="M16.0007 2.33325C23.5487 2.33325 29.6673 8.45192 29.6673 15.9999C29.6673 23.5479 23.5487 29.6666 16.0007 29.6666C8.45265 29.6666 2.33398 23.5479 2.33398 15.9999C2.33398 8.45192 8.45265 2.33325 16.0007 2.33325ZM16.0007 4.33325C9.55732 4.33325 4.33398 9.55659 4.33398 15.9999C4.33398 22.4433 9.55732 27.6666 16.0007 27.6666C22.444 27.6666 27.6673 22.4433 27.6673 15.9999C27.6673 9.55659 22.444 4.33325 16.0007 4.33325ZM20.334 9.66659C20.5826 9.6666 20.8222 9.7592 21.0063 9.92633C21.1903 10.0935 21.3055 10.3231 21.3293 10.5706L21.334 10.6666V13.9999C21.3339 14.2567 21.2349 14.5036 21.0577 14.6895C20.8805 14.8754 20.6386 14.9859 20.382 14.9983C20.1255 15.0106 19.8741 14.9238 19.6798 14.7558C19.4856 14.5878 19.3634 14.3515 19.3386 14.0959L19.334 13.9999V10.6666C19.334 10.4014 19.4393 10.147 19.6269 9.95948C19.8144 9.77194 20.0688 9.66659 20.334 9.66659ZM11.6673 9.66659C11.9159 9.6666 12.1556 9.7592 12.3396 9.92633C12.5236 10.0935 12.6388 10.3231 12.6627 10.5706L12.6673 10.6666V13.9999C12.6672 14.2567 12.5683 14.5036 12.391 14.6895C12.2138 14.8754 11.9719 14.9859 11.7154 14.9983C11.4589 15.0106 11.2074 14.9238 11.0132 14.7558C10.8189 14.5878 10.6968 14.3515 10.672 14.0959L10.6673 13.9999V10.6666C10.6673 10.4014 10.7727 10.147 10.9602 9.95948C11.1477 9.77194 11.4021 9.66659 11.6673 9.66659Z" fill="#111111"/>
</svg>
