<svg width="18" height="18" viewBox="0 0 18 18" fill="none" xmlns="http://www.w3.org/2000/svg">
<path d="M6.17657 12.0301C5.20448 11.9954 4.32311 11.4239 3.88778 10.6048C3.90834 10.6049 3.92844 10.6049 3.94804 10.6049L3.96086 10.6049C4.22371 10.6049 4.45127 10.566 4.67699 10.5275C4.70972 10.5219 4.74242 10.5163 4.77518 10.5108L4.78469 9.92073C3.70826 9.70544 2.8591 8.85716 2.67707 7.77198C2.99208 7.88545 3.33032 7.9499 3.69086 7.9499H4.63608L3.86386 7.40481C3.17015 6.91513 2.68586 6.10263 2.68586 5.1749C2.68586 4.83754 2.74389 4.52217 2.85964 4.22665C4.37997 5.89174 6.49429 6.96354 8.89452 7.09446L9.28093 7.11553L9.20503 6.73607C9.15895 6.50565 9.12086 6.31009 9.12086 6.1199C9.12086 4.62354 10.3336 3.4499 11.7909 3.4499C12.5116 3.4499 13.1984 3.77076 13.6854 4.29839L13.7996 4.42209L13.9647 4.38908C14.3583 4.31035 14.7398 4.2017 15.1083 4.05435C14.9033 4.32828 14.6454 4.56104 14.342 4.73443L14.5122 5.29414C14.7902 5.27429 15.0509 5.22993 15.2999 5.16857C15.0717 5.40608 14.8265 5.62966 14.5688 5.84444L14.4609 5.93439V6.0749V6.07543V6.07596V6.07649V6.07702V6.07755V6.07808V6.07862V6.07915V6.07969V6.08023V6.08077V6.0813V6.08184V6.08239V6.08293V6.08347V6.08401V6.08456V6.08511V6.08565V6.0862V6.08675V6.0873V6.08785V6.0884V6.08896V6.08951V6.09006V6.09062V6.09118V6.09174V6.09229V6.09285V6.09341V6.09398V6.09454V6.0951V6.09567V6.09623V6.0968V6.09737V6.09793V6.0985V6.09907V6.09965V6.10022V6.10079V6.10136V6.10194V6.10252V6.10309V6.10367V6.10425V6.10483V6.10541V6.10599V6.10657V6.10716V6.10774V6.10832V6.10891V6.1095V6.11009V6.11067V6.11126V6.11185V6.11245V6.11304V6.11363V6.11422V6.11482V6.11542V6.11601V6.11661V6.11721V6.11781V6.11841V6.11901V6.11961V6.12021V6.12082V6.12142V6.12203V6.12263V6.12324V6.12385V6.12446V6.12507V6.12568V6.12629V6.1269V6.12752V6.12813V6.12874V6.12936V6.12998V6.13059V6.13121V6.13183V6.13245V6.13307V6.13369V6.13432V6.13494V6.13556V6.13619V6.13681V6.13744V6.13807V6.1387V6.13932V6.13995V6.14058V6.14122V6.14185V6.14248V6.14311V6.14375V6.14438V6.14502V6.14566V6.14629V6.14693V6.14757V6.14821V6.14885V6.14949V6.15014V6.15078V6.15142V6.15207V6.15271V6.15336V6.15401V6.15465V6.1553V6.15595V6.1566V6.15725V6.1579V6.15856V6.15921V6.15986V6.16052V6.16117V6.16183V6.16249V6.16314V6.1638V6.16446V6.16512V6.16578V6.16644V6.1671V6.16776V6.16843V6.16909V6.16976V6.17042V6.17109V6.17175V6.17242V6.17309V6.17376V6.17443V6.1751V6.17577V6.17644V6.17711V6.17779V6.17846V6.17913V6.17981V6.18049V6.18116V6.18184V6.18252V6.1832V6.18387V6.18455V6.18524V6.18592V6.1866V6.18728V6.18796V6.18865V6.18933V6.19002V6.1907V6.19139V6.19208V6.19276V6.19345V6.19414V6.19483V6.19552V6.19621V6.1969V6.1976V6.19829V6.19898V6.19968V6.20037V6.20107V6.20176V6.20246V6.20316V6.20385V6.20455V6.20525V6.20595V6.20665V6.20735V6.20805V6.20875V6.20946V6.21016V6.21086V6.21157V6.21227V6.21298V6.21369V6.21439V6.2151V6.21581V6.21652V6.21722V6.21793V6.21864V6.21935V6.22007V6.22078V6.22149V6.2222V6.22292V6.22363V6.22435V6.22506V6.22578V6.22649V6.22721V6.22793V6.22865V6.22936V6.23008V6.2308V6.23152V6.23224V6.23296V6.23369V6.23441V6.23513V6.23585V6.23658V6.2373V6.23803V6.23875V6.23948V6.24021V6.24093V6.24166V6.24239V6.24312V6.24384V6.24457V6.2453V6.24603V6.24677V6.2475V6.24823V6.24896V6.24969V6.25043V6.25116V6.25189V6.25263V6.25337V6.2541V6.25484V6.25557V6.25631V6.25705V6.25779V6.25852V6.25926V6.26V6.26074V6.26148V6.26222V6.26297V6.26371V6.26445V6.26519V6.26593V6.26668V6.26742V6.26817V6.26891V6.26966V6.2704V6.27115V6.27189V6.27264V6.27339V6.27414V6.27488V6.27563V6.27638V6.27713V6.27788V6.27863V6.27938V6.28013V6.28088V6.28164V6.28239V6.28314V6.28389V6.28465V6.2854V6.28615V6.28691V6.28766V6.28842V6.28918V6.28993V6.29069V6.29144V6.2922V6.29296V6.29372V6.29448V6.29523V6.29599V6.29675V6.29751V6.29827V6.29903V6.29979V6.30055V6.30132V6.30208V6.30284V6.3036V6.30436V6.30513V6.30589V6.30665V6.30742V6.30818V6.30895V6.30971V6.31048V6.31124V6.31201V6.31278V6.31354V6.31431V6.31508V6.31585V6.31661V6.31738V6.31815V6.31892V6.31969V6.32046V6.32123V6.322V6.32277V6.32354V6.32431V6.32508V6.32585V6.32662V6.3274V6.32817V6.32894V6.32971V6.33049V6.33126V6.33203V6.33281V6.33358V6.33436V6.33513V6.33591V6.33668V6.33746V6.33823V6.33901V6.33978V6.34056V6.34134V6.34211V6.34289V6.34367V6.34445V6.34522V6.346V6.34678V6.34756V6.34834V6.34912V6.3499V6.35067V6.35145V6.35223V6.35301V6.35379V6.35457V6.35536V6.35614V6.35692V6.3577V6.35848V6.35926V6.36004V6.36083V6.36161V6.36239V6.36317V6.36396V6.36474V6.36552V6.3663V6.36709V6.36787V6.36866V6.36944V6.37022V6.37101V6.37179V6.37258V6.37336V6.37415V6.37493V6.37572V6.3765V6.37729V6.37807V6.37886V6.37965V6.38043V6.38122V6.38201V6.38279V6.38358V6.38437V6.38515V6.38594V6.38673V6.38751V6.3883V6.38909V6.38988V6.39066V6.39145V6.39224V6.39303V6.39382V6.39461V6.39539V6.39618V6.39697V6.39776V6.39855V6.39934V6.40013V6.40092V6.4017V6.40249V6.40328V6.40407V6.40486V6.40565V6.40644V6.40723V6.40802V6.40881V6.4096V6.41039V6.41118V6.41197V6.41276V6.41355V6.41434V6.41513V6.41592V6.41671V6.4175V6.41829V6.41909V6.41988V6.42067V6.42146V6.42225V6.42304V6.42383V6.42462V6.42541V6.4262V6.42699V6.42778V6.42857V6.42937V6.43016V6.43095V6.43174V6.43253V6.43332V6.43411V6.4349C14.4609 10.2209 11.5907 14.5499 6.34586 14.5499C5.18567 14.5499 4.06875 14.3006 3.04456 13.8658C4.28899 13.7599 5.44538 13.307 6.35583 12.5621L6.97136 12.0585L6.17657 12.0301Z" fill="#322221"/>
<path d="M6.17657 12.0301C5.20448 11.9954 4.32311 11.4239 3.88778 10.6048C3.90834 10.6049 3.92844 10.6049 3.94804 10.6049L3.96086 10.6049C4.22371 10.6049 4.45127 10.566 4.67699 10.5275C4.70972 10.5219 4.74242 10.5163 4.77518 10.5108L4.78469 9.92073C3.70826 9.70544 2.8591 8.85716 2.67707 7.77198C2.99208 7.88545 3.33032 7.9499 3.69086 7.9499H4.63608L3.86386 7.40481C3.17015 6.91513 2.68586 6.10263 2.68586 5.1749C2.68586 4.83754 2.74389 4.52217 2.85964 4.22665C4.37997 5.89174 6.49429 6.96354 8.89452 7.09446L9.28093 7.11553L9.20503 6.73607C9.15895 6.50565 9.12086 6.31009 9.12086 6.1199C9.12086 4.62354 10.3336 3.4499 11.7909 3.4499C12.5116 3.4499 13.1984 3.77076 13.6854 4.29839L13.7996 4.42209L13.9647 4.38908C14.3583 4.31035 14.7398 4.2017 15.1083 4.05435C14.9033 4.32828 14.6454 4.56104 14.342 4.73443L14.5122 5.29414C14.7902 5.27429 15.0509 5.22993 15.2999 5.16857C15.0717 5.40608 14.8265 5.62966 14.5688 5.84444L14.4609 5.93439V6.0749V6.07543V6.07596V6.07649V6.07702V6.07755V6.07808V6.07862V6.07915V6.07969V6.08023V6.08077V6.0813V6.08184V6.08239V6.08293V6.08347V6.08401V6.08456V6.08511V6.08565V6.0862V6.08675V6.0873V6.08785V6.0884V6.08896V6.08951V6.09006V6.09062V6.09118V6.09174V6.09229V6.09285V6.09341V6.09398V6.09454V6.0951V6.09567V6.09623V6.0968V6.09737V6.09793V6.0985V6.09907V6.09965V6.10022V6.10079V6.10136V6.10194V6.10252V6.10309V6.10367V6.10425V6.10483V6.10541V6.10599V6.10657V6.10716V6.10774V6.10832V6.10891V6.1095V6.11009V6.11067V6.11126V6.11185V6.11245V6.11304V6.11363V6.11422V6.11482V6.11542V6.11601V6.11661V6.11721V6.11781V6.11841V6.11901V6.11961V6.12021V6.12082V6.12142V6.12203V6.12263V6.12324V6.12385V6.12446V6.12507V6.12568V6.12629V6.1269V6.12752V6.12813V6.12874V6.12936V6.12998V6.13059V6.13121V6.13183V6.13245V6.13307V6.13369V6.13432V6.13494V6.13556V6.13619V6.13681V6.13744V6.13807V6.1387V6.13932V6.13995V6.14058V6.14122V6.14185V6.14248V6.14311V6.14375V6.14438V6.14502V6.14566V6.14629V6.14693V6.14757V6.14821V6.14885V6.14949V6.15014V6.15078V6.15142V6.15207V6.15271V6.15336V6.15401V6.15465V6.1553V6.15595V6.1566V6.15725V6.1579V6.15856V6.15921V6.15986V6.16052V6.16117V6.16183V6.16249V6.16314V6.1638V6.16446V6.16512V6.16578V6.16644V6.1671V6.16776V6.16843V6.16909V6.16976V6.17042V6.17109V6.17175V6.17242V6.17309V6.17376V6.17443V6.1751V6.17577V6.17644V6.17711V6.17779V6.17846V6.17913V6.17981V6.18049V6.18116V6.18184V6.18252V6.1832V6.18387V6.18455V6.18524V6.18592V6.1866V6.18728V6.18796V6.18865V6.18933V6.19002V6.1907V6.19139V6.19208V6.19276V6.19345V6.19414V6.19483V6.19552V6.19621V6.1969V6.1976V6.19829V6.19898V6.19968V6.20037V6.20107V6.20176V6.20246V6.20316V6.20385V6.20455V6.20525V6.20595V6.20665V6.20735V6.20805V6.20875V6.20946V6.21016V6.21086V6.21157V6.21227V6.21298V6.21369V6.21439V6.2151V6.21581V6.21652V6.21722V6.21793V6.21864V6.21935V6.22007V6.22078V6.22149V6.2222V6.22292V6.22363V6.22435V6.22506V6.22578V6.22649V6.22721V6.22793V6.22865V6.22936V6.23008V6.2308V6.23152V6.23224V6.23296V6.23369V6.23441V6.23513V6.23585V6.23658V6.2373V6.23803V6.23875V6.23948V6.24021V6.24093V6.24166V6.24239V6.24312V6.24384V6.24457V6.2453V6.24603V6.24677V6.2475V6.24823V6.24896V6.24969V6.25043V6.25116V6.25189V6.25263V6.25337V6.2541V6.25484V6.25557V6.25631V6.25705V6.25779V6.25852V6.25926V6.26V6.26074V6.26148V6.26222V6.26297V6.26371V6.26445V6.26519V6.26593V6.26668V6.26742V6.26817V6.26891V6.26966V6.2704V6.27115V6.27189V6.27264V6.27339V6.27414V6.27488V6.27563V6.27638V6.27713V6.27788V6.27863V6.27938V6.28013V6.28088V6.28164V6.28239V6.28314V6.28389V6.28465V6.2854V6.28615V6.28691V6.28766V6.28842V6.28918V6.28993V6.29069V6.29144V6.2922V6.29296V6.29372V6.29448V6.29523V6.29599V6.29675V6.29751V6.29827V6.29903V6.29979V6.30055V6.30132V6.30208V6.30284V6.3036V6.30436V6.30513V6.30589V6.30665V6.30742V6.30818V6.30895V6.30971V6.31048V6.31124V6.31201V6.31278V6.31354V6.31431V6.31508V6.31585V6.31661V6.31738V6.31815V6.31892V6.31969V6.32046V6.32123V6.322V6.32277V6.32354V6.32431V6.32508V6.32585V6.32662V6.3274V6.32817V6.32894V6.32971V6.33049V6.33126V6.33203V6.33281V6.33358V6.33436V6.33513V6.33591V6.33668V6.33746V6.33823V6.33901V6.33978V6.34056V6.34134V6.34211V6.34289V6.34367V6.34445V6.34522V6.346V6.34678V6.34756V6.34834V6.34912V6.3499V6.35067V6.35145V6.35223V6.35301V6.35379V6.35457V6.35536V6.35614V6.35692V6.3577V6.35848V6.35926V6.36004V6.36083V6.36161V6.36239V6.36317V6.36396V6.36474V6.36552V6.3663V6.36709V6.36787V6.36866V6.36944V6.37022V6.37101V6.37179V6.37258V6.37336V6.37415V6.37493V6.37572V6.3765V6.37729V6.37807V6.37886V6.37965V6.38043V6.38122V6.38201V6.38279V6.38358V6.38437V6.38515V6.38594V6.38673V6.38751V6.3883V6.38909V6.38988V6.39066V6.39145V6.39224V6.39303V6.39382V6.39461V6.39539V6.39618V6.39697V6.39776V6.39855V6.39934V6.40013V6.40092V6.4017V6.40249V6.40328V6.40407V6.40486V6.40565V6.40644V6.40723V6.40802V6.40881V6.4096V6.41039V6.41118V6.41197V6.41276V6.41355V6.41434V6.41513V6.41592V6.41671V6.4175V6.41829V6.41909V6.41988V6.42067V6.42146V6.42225V6.42304V6.42383V6.42462V6.42541V6.4262V6.42699V6.42778V6.42857V6.42937V6.43016V6.43095V6.43174V6.43253V6.43332V6.43411V6.4349C14.4609 10.2209 11.5907 14.5499 6.34586 14.5499C5.18567 14.5499 4.06875 14.3006 3.04456 13.8658C4.28899 13.7599 5.44538 13.307 6.35583 12.5621L6.97136 12.0585L6.17657 12.0301Z" fill="black" fill-opacity="0.2"/>
<path d="M6.17657 12.0301C5.20448 11.9954 4.32311 11.4239 3.88778 10.6048C3.90834 10.6049 3.92844 10.6049 3.94804 10.6049L3.96086 10.6049C4.22371 10.6049 4.45127 10.566 4.67699 10.5275C4.70972 10.5219 4.74242 10.5163 4.77518 10.5108L4.78469 9.92073C3.70826 9.70544 2.8591 8.85716 2.67707 7.77198C2.99208 7.88545 3.33032 7.9499 3.69086 7.9499H4.63608L3.86386 7.40481C3.17015 6.91513 2.68586 6.10263 2.68586 5.1749C2.68586 4.83754 2.74389 4.52217 2.85964 4.22665C4.37997 5.89174 6.49429 6.96354 8.89452 7.09446L9.28093 7.11553L9.20503 6.73607C9.15895 6.50565 9.12086 6.31009 9.12086 6.1199C9.12086 4.62354 10.3336 3.4499 11.7909 3.4499C12.5116 3.4499 13.1984 3.77076 13.6854 4.29839L13.7996 4.42209L13.9647 4.38908C14.3583 4.31035 14.7398 4.2017 15.1083 4.05435C14.9033 4.32828 14.6454 4.56104 14.342 4.73443L14.5122 5.29414C14.7902 5.27429 15.0509 5.22993 15.2999 5.16857C15.0717 5.40608 14.8265 5.62966 14.5688 5.84444L14.4609 5.93439V6.0749V6.07543V6.07596V6.07649V6.07702V6.07755V6.07808V6.07862V6.07915V6.07969V6.08023V6.08077V6.0813V6.08184V6.08239V6.08293V6.08347V6.08401V6.08456V6.08511V6.08565V6.0862V6.08675V6.0873V6.08785V6.0884V6.08896V6.08951V6.09006V6.09062V6.09118V6.09174V6.09229V6.09285V6.09341V6.09398V6.09454V6.0951V6.09567V6.09623V6.0968V6.09737V6.09793V6.0985V6.09907V6.09965V6.10022V6.10079V6.10136V6.10194V6.10252V6.10309V6.10367V6.10425V6.10483V6.10541V6.10599V6.10657V6.10716V6.10774V6.10832V6.10891V6.1095V6.11009V6.11067V6.11126V6.11185V6.11245V6.11304V6.11363V6.11422V6.11482V6.11542V6.11601V6.11661V6.11721V6.11781V6.11841V6.11901V6.11961V6.12021V6.12082V6.12142V6.12203V6.12263V6.12324V6.12385V6.12446V6.12507V6.12568V6.12629V6.1269V6.12752V6.12813V6.12874V6.12936V6.12998V6.13059V6.13121V6.13183V6.13245V6.13307V6.13369V6.13432V6.13494V6.13556V6.13619V6.13681V6.13744V6.13807V6.1387V6.13932V6.13995V6.14058V6.14122V6.14185V6.14248V6.14311V6.14375V6.14438V6.14502V6.14566V6.14629V6.14693V6.14757V6.14821V6.14885V6.14949V6.15014V6.15078V6.15142V6.15207V6.15271V6.15336V6.15401V6.15465V6.1553V6.15595V6.1566V6.15725V6.1579V6.15856V6.15921V6.15986V6.16052V6.16117V6.16183V6.16249V6.16314V6.1638V6.16446V6.16512V6.16578V6.16644V6.1671V6.16776V6.16843V6.16909V6.16976V6.17042V6.17109V6.17175V6.17242V6.17309V6.17376V6.17443V6.1751V6.17577V6.17644V6.17711V6.17779V6.17846V6.17913V6.17981V6.18049V6.18116V6.18184V6.18252V6.1832V6.18387V6.18455V6.18524V6.18592V6.1866V6.18728V6.18796V6.18865V6.18933V6.19002V6.1907V6.19139V6.19208V6.19276V6.19345V6.19414V6.19483V6.19552V6.19621V6.1969V6.1976V6.19829V6.19898V6.19968V6.20037V6.20107V6.20176V6.20246V6.20316V6.20385V6.20455V6.20525V6.20595V6.20665V6.20735V6.20805V6.20875V6.20946V6.21016V6.21086V6.21157V6.21227V6.21298V6.21369V6.21439V6.2151V6.21581V6.21652V6.21722V6.21793V6.21864V6.21935V6.22007V6.22078V6.22149V6.2222V6.22292V6.22363V6.22435V6.22506V6.22578V6.22649V6.22721V6.22793V6.22865V6.22936V6.23008V6.2308V6.23152V6.23224V6.23296V6.23369V6.23441V6.23513V6.23585V6.23658V6.2373V6.23803V6.23875V6.23948V6.24021V6.24093V6.24166V6.24239V6.24312V6.24384V6.24457V6.2453V6.24603V6.24677V6.2475V6.24823V6.24896V6.24969V6.25043V6.25116V6.25189V6.25263V6.25337V6.2541V6.25484V6.25557V6.25631V6.25705V6.25779V6.25852V6.25926V6.26V6.26074V6.26148V6.26222V6.26297V6.26371V6.26445V6.26519V6.26593V6.26668V6.26742V6.26817V6.26891V6.26966V6.2704V6.27115V6.27189V6.27264V6.27339V6.27414V6.27488V6.27563V6.27638V6.27713V6.27788V6.27863V6.27938V6.28013V6.28088V6.28164V6.28239V6.28314V6.28389V6.28465V6.2854V6.28615V6.28691V6.28766V6.28842V6.28918V6.28993V6.29069V6.29144V6.2922V6.29296V6.29372V6.29448V6.29523V6.29599V6.29675V6.29751V6.29827V6.29903V6.29979V6.30055V6.30132V6.30208V6.30284V6.3036V6.30436V6.30513V6.30589V6.30665V6.30742V6.30818V6.30895V6.30971V6.31048V6.31124V6.31201V6.31278V6.31354V6.31431V6.31508V6.31585V6.31661V6.31738V6.31815V6.31892V6.31969V6.32046V6.32123V6.322V6.32277V6.32354V6.32431V6.32508V6.32585V6.32662V6.3274V6.32817V6.32894V6.32971V6.33049V6.33126V6.33203V6.33281V6.33358V6.33436V6.33513V6.33591V6.33668V6.33746V6.33823V6.33901V6.33978V6.34056V6.34134V6.34211V6.34289V6.34367V6.34445V6.34522V6.346V6.34678V6.34756V6.34834V6.34912V6.3499V6.35067V6.35145V6.35223V6.35301V6.35379V6.35457V6.35536V6.35614V6.35692V6.3577V6.35848V6.35926V6.36004V6.36083V6.36161V6.36239V6.36317V6.36396V6.36474V6.36552V6.3663V6.36709V6.36787V6.36866V6.36944V6.37022V6.37101V6.37179V6.37258V6.37336V6.37415V6.37493V6.37572V6.3765V6.37729V6.37807V6.37886V6.37965V6.38043V6.38122V6.38201V6.38279V6.38358V6.38437V6.38515V6.38594V6.38673V6.38751V6.3883V6.38909V6.38988V6.39066V6.39145V6.39224V6.39303V6.39382V6.39461V6.39539V6.39618V6.39697V6.39776V6.39855V6.39934V6.40013V6.40092V6.4017V6.40249V6.40328V6.40407V6.40486V6.40565V6.40644V6.40723V6.40802V6.40881V6.4096V6.41039V6.41118V6.41197V6.41276V6.41355V6.41434V6.41513V6.41592V6.41671V6.4175V6.41829V6.41909V6.41988V6.42067V6.42146V6.42225V6.42304V6.42383V6.42462V6.42541V6.4262V6.42699V6.42778V6.42857V6.42937V6.43016V6.43095V6.43174V6.43253V6.43332V6.43411V6.4349C14.4609 10.2209 11.5907 14.5499 6.34586 14.5499C5.18567 14.5499 4.06875 14.3006 3.04456 13.8658C4.28899 13.7599 5.44538 13.307 6.35583 12.5621L6.97136 12.0585L6.17657 12.0301Z" stroke="#322221" stroke-width="0.6"/>
</svg>
