<svg width="363" height="90" viewBox="0 0 363 90" fill="none" xmlns="http://www.w3.org/2000/svg">
    <path d="M107.078 31.562L96.5811 37.5704L96.5892 64.303L107.058 58.3069L107.078 31.562Z" fill="#D43327"/>
    <path d="M65.02 19.2708L65.0159 46.7078L31.9883 65.8306L32.0251 38.5369L65.02 19.2708Z" fill="#D43327"/>
    <path d="M1.40551 31.6521L1.29492 58.6427L54.2891 89V62.079L1.40551 31.6521Z" fill="#902552"/>
    <path d="M65.0195 19.2871L65.0605 46.3678L96.5891 64.3028V37.5662L65.0195 19.2871Z" fill="#902552"/>
    <path d="M86.0386 43.7712V70.4833L54.252 89V62.079L86.0386 43.7712Z" fill="#D43327"/>
    <path d="M107.094 31.5538L96.5889 37.5704L65.0234 19.275L35.6614 36.3827L46.3266 42.5713L65.0152 31.775L86.0588 43.7713L54.2886 62.079L1.36816 31.6112L54.1248 1L107.094 31.5538Z" fill="#F3D8B9"/>
    <path d="M46.3717 42.5713L65.0562 31.7709L86.0794 43.7713L54.2927 62.079L1.40918 31.6153L54.1658 1L107.123 31.562L96.6299 37.5663L65.0644 19.2873L35.7024 36.3827L46.3717 42.5713Z" stroke="#020000" stroke-width="0.823234" stroke-miterlimit="10"/>
    <path d="M65.0648 19.2871L65.0566 31.7708" stroke="#020000" stroke-width="0.823234" stroke-miterlimit="10"/>
    <path d="M86.473 43.7712V70.2704L53.9122 89L1 58.6427L1.07782 31.6152" stroke="#020000" stroke-width="0.823234" stroke-miterlimit="10"/>
    <path d="M54.293 62.0791V89.0001" stroke="#020000" stroke-width="0.823234" stroke-miterlimit="10"/>
    <path d="M107.488 31.6152V57.8481L96.4948 64.3029L86.4727 58.5239" stroke="#020000" stroke-width="0.823234" stroke-miterlimit="10"/>
    <path d="M96.6299 37.5662V64.3028" stroke="#020000" stroke-width="0.823234" stroke-miterlimit="10"/>
    <path d="M132.152 56.898H126.115V39.0489H132.152V56.898ZM156.292 39.0489H132.152V33.0979H156.292V39.0489ZM150.259 56.898V50.9469H138.189V44.9959H156.296V62.8449H132.156V56.8939H150.263L150.259 56.898Z" fill="black"/>
    <path d="M192.502 62.849H186.469V56.898H168.362V62.849H162.325V39.0531H168.362V50.9511H186.469V39.0531H192.502V62.849ZM168.362 33.1021H186.469V39.0531H168.362V33.1021Z" fill="#D43327"/>
    <path d="M216.642 39.0489H210.609V56.898H216.642V62.849H198.535V56.898H204.572V39.0489H198.535V33.0979H216.642V39.0489Z" fill="#D43327"/>
    <path d="M252.898 62.8488H246.865V56.8978H228.758V62.8488H222.721V39.0528H228.758V50.9508H246.865V39.0528H252.898V62.8488ZM228.758 33.1018H246.865V39.0528H228.758V33.1018Z" fill="black"/>
    <path d="M264.968 39.0489V62.8449H258.931V33.0979H271.001V39.0489H264.968ZM271.001 45V39.0489H277.038V45H271.001ZM289.108 62.849H283.075V50.951H277.042V45H283.075V33.102H289.108V62.849Z" fill="black"/>
    <path d="M301.178 45H319.285V50.951H301.178V56.9021H295.141V39.053H301.178V45.0041V45ZM325.318 39.0489H301.178V33.0979H325.318V39.0489ZM325.318 56.898V62.849H301.178V56.898H325.318Z" fill="black"/>
    <path d="M329.344 33.1018V39.0487H341.414V62.8488H347.447V39.0487H347.475H353.373V33.1018H329.344Z" fill="black"/>
    <path d="M362.031 27.1509H356.08V33.1019H362.031V27.1509Z" fill="#D43327"/>
</svg>