<svg width="363" height="90" viewBox="0 0 363 90" fill="none" xmlns="http://www.w3.org/2000/svg">
    <path d="M107.078 31.562L96.5811 37.5704L96.5892 64.303L107.058 58.3069L107.078 31.562Z" fill="#D43327"/>
    <path d="M65.02 19.2709L65.0159 46.7079L31.9883 65.8307L32.0251 38.537L65.02 19.2709Z" fill="#D43327"/>
    <path d="M1.40551 31.6521L1.29492 58.6427L54.2891 89V62.079L1.40551 31.6521Z" fill="#902552"/>
    <path d="M65.0195 19.2872L65.0605 46.3679L96.5891 64.303V37.5663L65.0195 19.2872Z" fill="#902552"/>
    <path d="M86.0386 43.7712V70.4833L54.252 89V62.079L86.0386 43.7712Z" fill="#D43327"/>
    <path d="M107.094 31.5538L96.5889 37.5704L65.0234 19.275L35.6614 36.3827L46.3266 42.5713L65.0152 31.775L86.0588 43.7713L54.2886 62.079L1.36816 31.6112L54.1248 1L107.094 31.5538Z" fill="#F3D8B9"/>
    <path d="M46.3717 42.5713L65.0562 31.7709L86.0794 43.7713L54.2927 62.079L1.40918 31.6153L54.1658 1L107.123 31.562L96.6299 37.5663L65.0644 19.2873L35.7024 36.3827L46.3717 42.5713Z" stroke="#020000" stroke-width="0.823234" stroke-miterlimit="10"/>
    <path d="M65.0648 19.2872L65.0566 31.7709" stroke="#020000" stroke-width="0.823234" stroke-miterlimit="10"/>
    <path d="M86.473 43.7712V70.2704L53.9122 89L1 58.6427L1.07782 31.6152" stroke="#020000" stroke-width="0.823234" stroke-miterlimit="10"/>
    <path d="M54.293 62.079V89" stroke="#020000" stroke-width="0.823234" stroke-miterlimit="10"/>
    <path d="M107.488 31.6152V57.8481L96.4948 64.3029L86.4727 58.5239" stroke="#020000" stroke-width="0.823234" stroke-miterlimit="10"/>
    <path d="M96.6299 37.5663V64.3029" stroke="#020000" stroke-width="0.823234" stroke-miterlimit="10"/>
    <path d="M132.152 56.8978H126.115V39.0488H132.152V56.8978ZM156.292 39.0488H132.152V33.0978H156.292V39.0488ZM150.259 56.8978V50.9468H138.189V44.9958H156.296V62.8448H132.156V56.8937H150.263L150.259 56.8978Z" fill="white"/>
    <path d="M192.502 62.8489H186.469V56.8979H168.362V62.8489H162.325V39.053H168.362V50.9509H186.469V39.053H192.502V62.8489ZM168.362 33.1019H186.469V39.053H168.362V33.1019Z" fill="#D43327"/>
    <path d="M216.642 39.0488H210.609V56.8978H216.642V62.8489H198.535V56.8978H204.572V39.0488H198.535V33.0978H216.642V39.0488Z" fill="#D43327"/>
    <path d="M252.898 62.8489H246.865V56.8979H228.758V62.8489H222.721V39.053H228.758V50.9509H246.865V39.053H252.898V62.8489ZM228.758 33.1019H246.865V39.053H228.758V33.1019Z" fill="white"/>
    <path d="M264.968 39.0488V62.8448H258.931V33.0978H271.001V39.0488H264.968ZM271.001 44.9999V39.0488H277.038V44.9999H271.001ZM289.108 62.8489H283.075V50.9509H277.042V44.9999H283.075V33.1019H289.108V62.8489Z" fill="white"/>
    <path d="M301.178 44.9999H319.285V50.9509H301.178V56.9019H295.141V39.0529H301.178V45.004V44.9999ZM325.318 39.0488H301.178V33.0978H325.318V39.0488ZM325.318 56.8978V62.8489H301.178V56.8978H325.318Z" fill="white"/>
    <path d="M329.344 33.1019V39.0489H341.414V62.8489H347.447V39.0489H347.475H353.373V33.1019H329.344Z" fill="white"/>
    <path d="M362.031 27.1509H356.08V33.1019H362.031V27.1509Z" fill="#D43327"/>
</svg>