<svg id="LlamaEdge_" data-name="LlamaEdge " xmlns="http://www.w3.org/2000/svg" xmlns:xlink="http://www.w3.org/1999/xlink" width="824" height="1024" viewBox="0 0 1024 1024">
    <defs>
        <style>
            .cls-1 {
            fill: transparent;
            }

            .cls-2, .cls-3 {
            fill-rule: evenodd;
            }

            .cls-2 {
            fill: url(#linear-gradient);
            }
        </style>
        <linearGradient id="linear-gradient" x1="500.375" y1="960.656" x2="500.375" y2="72.75" gradientUnits="userSpaceOnUse">
            <stop offset="0" stop-color="#231960"/>
            <stop offset="1" stop-color="#b45edc"/>
        </linearGradient>
    </defs>
    <rect id="shape_1" data-name="shape 1" class="cls-1" width="2982" height="1024"/>
    <path id="shape_2" data-name="shape 2" class="cls-2" d="M785.164,784.959c-9.128,3.508-16.527-1.019-20.279-4.68s-50.957-48.689-137.271-92.034c0,0-18.719-7.2-18.719-28.078V231.2s-0.563-7.8,7.8-7.8,17.314,11.839,31.2,42.117,12.479,65.516,12.479,65.516v304.18s0.475,8.485,7.8,12.479,35.872,20.079,57.717,35.878c0,0,12.479,8.7,12.479-6.24V632.089s-0.685-15.6,14.039-15.6c0,0,5.9-.472,14.039,6.24s20.279,17.159,20.279,17.159,6.239,4.887,6.239,12.479V769.36S794.291,781.451,785.164,784.959ZM572.662,531.99L277.334,660.676a13.073,13.073,0,0,1-2.9,1.264l-0.446.194-0.034-.067a13.819,13.819,0,0,1-3.478.452c-7.966,0-15.974-6.433-15.974-14.4v-23.4c0-6.5,4.821-12.6,10.919-14.627v-0.113L409.8,547.071V351.107c0-19.886-24.538-21.471-24.538-21.471H318.8l-0.731-.731c-6.362-.645-15.883-4.015-15.883-18.439,0-21.656-2.362-43.6,41.919-58.278s46.009-15.336,46.009-15.336-24.438-16.237,5.112-26.583c0,0-19.671-18.957,13.291-26.582,0,0-19.338-15.8,23.515-24.538a92.827,92.827,0,0,1,18.522-1.532c-0.594-15.779-3.569-36.724-12.3-61.256-14.829-41.644,40.074,14.869,51.759,65.605q5.192,1.026,10.44,2.277c1.649-16.219,1.93-40.371-3.468-72.363-9.388-55.647,57.957,21.185,50.735,88.838,23.676,11.546,41,26.857,41,44.632q0,6.114-.006,11.776c0,0.165.006,0.327,0.006,0.493V501.4c0,1.674-.031,2.928,0,5.112C588.713,517.125,582.975,527.5,572.662,531.99ZM569.6,587.442a15.552,15.552,0,0,1,4.68,10.919V620.2s1.67,11.552-10.92,15.6c-11.92,3.832-195.643,67-330.7,160.669,0,0-10.578,5.936-18.718,1.56-6.878-3.7-6.24-12.479-6.24-12.479V757.471a15.138,15.138,0,0,1,6.24-12.479s125.035-85.8,341.617-160.67A15.8,15.8,0,0,1,569.6,587.442ZM332.876,775.272s26.465-16.373,70.2-37.437c0,0,10.586-5.535,29.638,1.56s94.321,38.859,160.669,88.914c0,0,12.176,11.6-1.56,21.838s-17.158,12.479-17.158,12.479-17.155,9.034,0,23.4C590.075,898.933,612.1,921.9,612.1,921.9s8.659,9.915-1.56,20.279S596.5,956.22,596.5,956.22s-10.417,10.956-21.838-1.56S498.115,868.1,334.435,800.231c0,0-8.315-2.652-9.359-10.92C324.086,781.471,328.275,777.164,332.876,775.272Zm155.609-64.546c0.13-4.955,2.577-11.092,10.92-14.039l23.4-7.8s8.651-3.256,20.279,1.56S669.97,748.79,739.629,818.359c0,0,12.674,13.4-4.68,24.959s-20.279,14.039-20.279,14.039-10.353,6.661-20.278-3.12S606.468,773.1,499.405,724.766C499.405,724.766,488.205,721.452,488.485,710.726ZM431,237s12.37,5.979,24,0,17.548,5.81,10,13c-4.277,4.074-11.74,9.46-21,10-7.081.413-15.407-2.012-23-10a10.148,10.148,0,0,1-3-8C418.469,236.437,425.949,233.521,431,237Z"/>
<!--    <path id="shape_3" data-name="shape 3" class="cls-3" d="M2804.8,535.96q-0.315,3.607-.62,6.739H2676.64a43.447,43.447,0,0,0,4.83,12.38,39.8,39.8,0,0,0,17.24,15.985q11.115,5.489,26.17,5.485a63.388,63.388,0,0,0,23.66-4.074,57.529,57.529,0,0,0,18.65-12.224l26.02,28.209a75.858,75.858,0,0,1-29.15,20.216q-17.565,7.053-40.44,7.052-28.83,0-50.62-11.283t-33.69-30.873q-11.91-19.586-11.91-44.664,0-25.389,11.75-44.978a83.418,83.418,0,0,1,32.13-30.716q20.37-11.123,46.07-11.127,24.765,0,44.67,10.5a78.637,78.637,0,0,1,31.5,30.09q11.595,19.591,11.6,46.858Q2805.12,532.355,2804.8,535.96Zm-65.19-51.4a42.813,42.813,0,0,0-21.94-5.485,43.647,43.647,0,0,0-22.1,5.485,38.335,38.335,0,0,0-14.89,15.358,43.956,43.956,0,0,0-4.65,14.262h83.03a42.774,42.774,0,0,0-4.72-14.418A38.971,38.971,0,0,0,2739.61,484.557ZM2499.83,676.534a180.174,180.174,0,0,1-45.91-5.8q-22.1-5.8-36.83-17.4l19.43-35.1q10.65,8.77,27.11,13.947a107.814,107.814,0,0,0,32.44,5.172q26.01,0,37.77-11.6t11.76-34.477v-7.364a57.225,57.225,0,0,1-15.68,12.379q-16.29,8.778-37.61,8.776-23.505,0-42.47-10.187a79.67,79.67,0,0,1-30.4-28.522Q2408,548.027,2408,523.579q0-24.756,11.44-43.1a78.535,78.535,0,0,1,30.4-28.366q18.96-10.027,42.47-10.03,21.315,0,37.61,8.62a56.527,56.527,0,0,1,18.18,15.246V444.6h46.39V585.012q0,47.015-24.45,69.268T2499.83,676.534ZM2540.58,501.8a38.777,38.777,0,0,0-15.67-14.418,53.195,53.195,0,0,0-45.76,0,39.8,39.8,0,0,0-15.83,14.418q-5.805,9.249-5.8,21.783a40.316,40.316,0,0,0,5.8,21.627,39.408,39.408,0,0,0,15.83,14.575,53.2,53.2,0,0,0,45.76,0,38.412,38.412,0,0,0,15.67-14.575,41.22,41.22,0,0,0,5.64-21.627Q2546.22,511.048,2540.58,501.8ZM2328.71,593.73a55.305,55.305,0,0,1-14.58,12.6q-15.825,9.4-38.08,9.4-23.82,0-42.94-10.813a79.327,79.327,0,0,1-30.25-30.246q-11.13-19.431-11.12-45.761,0-26.637,11.12-46.075a78.248,78.248,0,0,1,30.25-30.089q19.11-10.652,42.94-10.657,21.315,0,37.3,9.4a56.564,56.564,0,0,1,13.16,10.706V380.655h48.9V613.221h-46.7V593.73Zm-7.06-89.9a41.6,41.6,0,0,0-15.51-15.985,42.3,42.3,0,0,0-21.63-5.642,42.891,42.891,0,0,0-21.94,5.642,41.455,41.455,0,0,0-15.51,15.985q-5.8,10.344-5.8,25.075,0,14.419,5.8,24.918a41.153,41.153,0,0,0,15.51,16.141,42.881,42.881,0,0,0,21.94,5.642,42.292,42.292,0,0,0,21.63-5.642,41.291,41.291,0,0,0,15.51-16.141q5.8-10.5,5.8-24.918Q2327.45,514.18,2321.65,503.833ZM1996.78,393.819h165.81v40.746H2047.25v47.641h101.86V521.7H2047.25v50.776h119.41v40.746H1996.78v-219.4Zm-93.39,198.433a42.914,42.914,0,0,1-15.05,15.014q-14.1,8.462-36.36,8.462-19.74,0-33.85-6.738t-21.62-18.336a46.727,46.727,0,0,1-7.53-26.015q0-15.045,7.37-26.328T1819.7,520.6q15.99-6.42,41.69-6.425h38.86q0-15.671-9.56-24.448t-29.3-8.776a85.108,85.108,0,0,0-26.49,4.231,70.15,70.15,0,0,0-22.1,11.44l-17.55-34.164q13.785-9.711,33.22-15.044a148.785,148.785,0,0,1,39.5-5.329q38.55,0,59.86,18.179T1949.15,517v96.224h-45.76V592.252Zm-3.14-49.553h-33.54q-17.235,0-23.66,5.642a17.977,17.977,0,0,0-6.43,14.1,17.584,17.584,0,0,0,7.37,14.888q7.365,5.487,20.22,5.485a41.966,41.966,0,0,0,21.94-5.8,33.265,33.265,0,0,0,14.1-17.082V542.7Zm-193.07-18.493q0-20.37-8.46-30.089-8.475-9.711-23.83-9.716a37.7,37.7,0,0,0-19.11,4.858,32.654,32.654,0,0,0-13.17,14.574q-4.695,9.719-4.7,24.761v84.627h-48.9V524.206q0-20.37-8.3-30.089t-23.67-9.716a37.7,37.7,0,0,0-19.11,4.858,32.654,32.654,0,0,0-13.17,14.574q-4.695,9.719-4.7,24.761v84.627h-48.9V444.6h46.71v19.47a58.845,58.845,0,0,1,16.14-13.045q16.14-8.933,36.83-8.933,23.19,0,40.58,11.754a50.959,50.959,0,0,1,14.99,15.69,69.126,69.126,0,0,1,17.93-15.847q18.63-11.592,42.78-11.6,20.055,0,35.57,7.993t24.45,24.447q8.94,16.455,8.93,42.157v96.537h-48.89V524.206Zm-325.97,68.046a42.8,42.8,0,0,1-15.04,15.014q-14.1,8.462-36.36,8.462-19.74,0-33.85-6.738t-21.63-18.336a46.8,46.8,0,0,1-7.52-26.015q0-15.045,7.37-26.328,7.35-11.285,23.35-17.709,15.975-6.42,41.68-6.425h38.87q0-15.671-9.56-24.448t-29.31-8.776a85.092,85.092,0,0,0-26.48,4.231,70.042,70.042,0,0,0-22.1,11.44l-17.55-34.164q13.785-9.711,33.22-15.044a148.785,148.785,0,0,1,39.5-5.329q38.55,0,59.86,18.179T1426.97,517v96.224h-45.76V592.252Zm-3.13-49.553h-33.54q-17.235,0-23.66,5.642a17.977,17.977,0,0,0-6.43,14.1,17.584,17.584,0,0,0,7.37,14.888q7.35,5.487,20.21,5.485a41.966,41.966,0,0,0,21.94-5.8,33.235,33.235,0,0,0,14.11-17.082V542.7ZM1183.44,380.655h48.89V613.221h-48.89V380.655ZM997.578,393.819h50.772V571.848h110.02v41.373H997.578v-219.4Z"/>-->
</svg>
